<svg xmlns="http://www.w3.org/2000/svg" width="701.613" height="117.821" viewBox="0 0 701.613 117.821">
  <g id="Welle_Veranstaltung" data-name="Welle Veranstaltung" transform="translate(-2027 -2208.108)" opacity="0.71">
    <g id="Komponente_1_7" data-name="Komponente 1 – 7" transform="translate(2027 2261)" opacity="0.39">
      <path id="Pfad_1" data-name="Pfad 1" d="M-532.159-75.823c1.3.679,120.581,10.19,282.653,40.762s250.239,5.435,282.653,0,106.319-45.517,99.836-40.762S52.6-39.817-71.875-46.61-255.988-68.35-328.6-80.578-533.455-76.5-532.159-75.823Z" transform="translate(532.168 85.112)" fill="rgba(35,31,32,0.23)"/>
    </g>
    <g id="Komponente_1_8" data-name="Komponente 1 – 8" transform="translate(2126.02 2229.067) rotate(-2)" opacity="0.15">
      <path id="Pfad_1-2" data-name="Pfad 1" d="M-532.159-75.25c1.17.721,108.805,10.818,255.048,43.273s225.8,5.77,255.048,0S73.873-80.3,68.023-75.25-4.513-37.026-116.828-44.238-282.961-67.317-348.478-80.3-533.33-75.972-532.159-75.25Z" transform="translate(532.168 85.112)" fill="rgba(35,31,32,0.23)"/>
    </g>
  </g>
</svg>
